<?xml version="1.0" standalone="no"?>
<!DOCTYPE svg PUBLIC "-//W3C//DTD SVG 20010904//EN"
 "http://www.w3.org/TR/2001/REC-SVG-20010904/DTD/svg10.dtd">
<svg version="1.0" xmlns="http://www.w3.org/2000/svg"
 width="500.000000pt" height="500.000000pt" viewBox="0 0 500.000000 500.000000"
 preserveAspectRatio="xMidYMid meet">

<g transform="translate(0.000000,500.000000) scale(0.100000,-0.100000)"
fill="#000000" stroke="none">
<path d="M2305 4994 c-368 -38 -631 -112 -926 -260 -475 -238 -864 -624 -1103
-1093 -193 -379 -271 -707 -271 -1141 0 -434 78 -762 271 -1142 340 -668 987
-1160 1719 -1307 188 -38 277 -46 505 -46 228 0 317 8 505 46 732 147 1379
639 1719 1307 193 380 271 708 271 1142 0 228 -8 317 -46 505 -148 738 -643
1384 -1322 1726 -254 128 -480 200 -772 245 -96 14 -465 27 -550 18z m415
-1501 c-1 -5 -18 -195 -39 -423 -21 -228 -37 -416 -36 -418 2 -2 163 67 360
153 196 86 359 155 362 152 6 -7 123 -377 123 -391 0 -6 -168 -49 -373 -95
-204 -46 -376 -87 -380 -92 -5 -4 106 -146 247 -315 141 -170 256 -311 255
-314 0 -6 -341 -251 -344 -248 -1 2 -94 164 -205 361 -112 197 -206 354 -210
350 -4 -4 -96 -161 -205 -348 -109 -187 -198 -341 -199 -342 -3 -4 -345 232
-346 238 0 3 120 146 266 318 146 172 264 315 261 318 -3 2 -171 45 -374 95
-202 49 -370 92 -372 94 -5 4 108 366 120 385 4 7 127 -43 365 -148 198 -88
360 -156 362 -152 3 8 -54 725 -63 792 l-5 37 215 0 c118 0 215 -3 215 -7z"/>
</g>
</svg>
